<svg xmlns="http://www.w3.org/2000/svg" width="151.418" height="151.419" viewBox="0 0 151.418 151.419">
  <g id="Raggruppa_656" data-name="Raggruppa 656" transform="translate(-440.937 -2444.114)">
    <path id="Tracciato_455" data-name="Tracciato 455" d="M436.386,340.533h0a75.709,75.709,0,1,1,75.709-75.709,75.709,75.709,0,0,1-75.709,75.709" transform="translate(80.26 2255)" fill="none"/>
    <path id="Tracciato_469" data-name="Tracciato 469" d="M429.662,243.8h-30.95a2.651,2.651,0,1,0,0,5.3H404.9v34.19a2.65,2.65,0,0,0,5.3,0V249.1h19.465a2.651,2.651,0,0,0,0-5.3" transform="translate(80.26 2255)" fill="#fff"/>
    <path id="Tracciato_470" data-name="Tracciato 470" d="M474.06,243.8H443.11a2.651,2.651,0,1,0,0,5.3h19.465v34.19a2.65,2.65,0,0,0,5.3,0V249.1h6.184a2.651,2.651,0,0,0,0-5.3" transform="translate(80.26 2255)" fill="#fff"/>
  </g>
</svg>
