<svg xmlns="http://www.w3.org/2000/svg" width="151.418" height="151.419" viewBox="0 0 151.418 151.419">
  <g id="Raggruppa_650" data-name="Raggruppa 650" transform="translate(-802.87 -2255)">
    <path id="Tracciato_451" data-name="Tracciato 451" d="M798.319,151.419h0A75.71,75.71,0,1,1,874.028,75.71a75.709,75.709,0,0,1-75.709,75.709" transform="translate(80.26 2255)" fill="none"/>
    <path id="Tracciato_471" data-name="Tracciato 471" d="M771.491,65.97a2.651,2.651,0,0,1-1.064-5.079l7.247-3.171-7.247-3.173a2.65,2.65,0,1,1,2.125-4.855l12.795,5.6a2.649,2.649,0,0,1,0,4.855l-12.795,5.6a2.629,2.629,0,0,1-1.061.223" transform="translate(80.26 2255)" fill="#fff"/>
    <path id="Tracciato_472" data-name="Tracciato 472" d="M825.147,65.609a2.628,2.628,0,0,1-1.061-.222l-12.795-5.6a2.649,2.649,0,0,1,0-4.854l12.795-5.6a2.65,2.65,0,1,1,2.125,4.855l-7.247,3.172,7.247,3.172a2.65,2.65,0,0,1-1.064,5.078" transform="translate(80.26 2255)" fill="#fff"/>
  </g>
</svg>
