<svg xmlns="http://www.w3.org/2000/svg" width="151.418" height="151.419" viewBox="0 0 151.418 151.419">
  <g id="Raggruppa_657" data-name="Raggruppa 657" transform="translate(-260.599 -2444.114)">
    <path id="Tracciato_454" data-name="Tracciato 454" d="M256.048,340.533h0a75.709,75.709,0,1,1,75.709-75.709,75.709,75.709,0,0,1-75.709,75.709" transform="translate(80.26 2255)" fill="none"/>
    <path id="Tracciato_463" data-name="Tracciato 463" d="M238.2,245.37H229.5a4,4,0,0,1,0-8H238.2a4,4,0,0,1,0,8" transform="translate(80.26 2255)" fill="#fff"/>
    <path id="Tracciato_464" data-name="Tracciato 464" d="M282.594,245.37H273.9a4,4,0,0,1,0-8h8.694a4,4,0,0,1,0,8" transform="translate(80.26 2255)" fill="#fff"/>
    <path id="Tracciato_481" data-name="Tracciato 481" d="M249.323,233.173h-30.95a2.651,2.651,0,1,1,0-5.3h30.95a2.651,2.651,0,0,1,0,5.3" transform="translate(80.26 2255)" fill="#fff"/>
    <path id="Tracciato_482" data-name="Tracciato 482" d="M293.722,233.173h-30.95a2.651,2.651,0,1,1,0-5.3h30.95a2.651,2.651,0,0,1,0,5.3" transform="translate(80.26 2255)" fill="#fff"/>
  </g>
</svg>
