<svg xmlns="http://www.w3.org/2000/svg" width="151.418" height="151.419" viewBox="0 0 151.418 151.419">
  <g id="Raggruppa_655" data-name="Raggruppa 655" transform="translate(-621.275 -2444.114)">
    <path id="Tracciato_456" data-name="Tracciato 456" d="M616.724,340.533h0a75.709,75.709,0,1,1,75.709-75.709,75.709,75.709,0,0,1-75.709,75.709" transform="translate(80.26 2255)" fill="none"/>
    <rect id="Rettangolo_427" data-name="Rettangolo 427" width="3.051" height="3.051" transform="translate(668.605 2503.302)" fill="#fff"/>
    <rect id="Rettangolo_428" data-name="Rettangolo 428" width="3.051" height="3.051" transform="translate(713.118 2503.302)" fill="#fff"/>
    <path id="Tracciato_483" data-name="Tracciato 483" d="M620.735,242.008H575.983v6.376h2.948v3.128h3.248v2.827h3.188v3.308h21.894v-3.068h3.309v-3.127h3.248v-6.316h5.955v6.316h3.248v3.127h3.308v3.068h21.895v-3.308h3.188v-2.827h3.248v-3.128h2.947v-6.376Z" transform="translate(80.26 2255)" fill="#fff"/>
  </g>
</svg>
