<svg xmlns="http://www.w3.org/2000/svg" width="151.418" height="151.419" viewBox="0 0 151.418 151.419">
  <g id="Raggruppa_649" data-name="Raggruppa 649" transform="translate(-622.532 -2255)">
    <path id="Tracciato_450" data-name="Tracciato 450" d="M617.981,151.419h0A75.71,75.71,0,1,1,693.69,75.71a75.709,75.709,0,0,1-75.709,75.709" transform="translate(80.26 2255)" fill="none"/>
    <path id="Tracciato_467" data-name="Tracciato 467" d="M646.784,66.614a2.651,2.651,0,0,1-2.651-2.65,3.953,3.953,0,1,0-7.907,0,2.651,2.651,0,0,1-5.3,0,9.255,9.255,0,1,1,18.509,0,2.65,2.65,0,0,1-2.65,2.65" transform="translate(80.26 2255)" fill="#fff"/>
    <path id="Tracciato_468" data-name="Tracciato 468" d="M602.386,66.614a2.65,2.65,0,0,1-2.65-2.65,3.954,3.954,0,0,0-7.908,0,2.651,2.651,0,0,1-5.3,0,9.255,9.255,0,1,1,18.509,0,2.65,2.65,0,0,1-2.65,2.65" transform="translate(80.26 2255)" fill="#fff"/>
  </g>
</svg>
