<svg xmlns="http://www.w3.org/2000/svg" width="151.418" height="151.419" viewBox="0 0 151.418 151.419">
  <g id="Raggruppa_653" data-name="Raggruppa 653" transform="translate(-1164.582 -2444.114)">
    <path id="Tracciato_491" data-name="Tracciato 491" d="M1160.031,340.533h0a75.709,75.709,0,1,1,75.709-75.709,75.709,75.709,0,0,1-75.709,75.709" transform="translate(80.26 2255)" fill="none"/>
    <path id="Tracciato_492" data-name="Tracciato 492" d="M1177.254,246.63v-4.355a3.539,3.539,0,1,1,7.077,0v4.355a3.539,3.539,0,1,1-7.077,0" transform="translate(80.26 2255)" fill="#fff"/>
    <path id="Tracciato_493" data-name="Tracciato 493" d="M1135.731,246.63v-4.355a3.539,3.539,0,1,1,7.077,0v4.355a3.539,3.539,0,1,1-7.077,0" transform="translate(80.26 2255)" fill="#fff"/>
    <path id="Tracciato_494" data-name="Tracciato 494" d="M1180.793,226.981a17.5,17.5,0,0,0-16.76,12.544h-8a17.478,17.478,0,1,0,.7,5.3h6.6a17.469,17.469,0,1,0,17.462-17.845m-41.524,29.642a12.17,12.17,0,1,1,12.171-12.171,12.184,12.184,0,0,1-12.171,12.171m41.524,0a12.17,12.17,0,1,1,12.171-12.171,12.185,12.185,0,0,1-12.171,12.171" transform="translate(80.26 2255)" fill="#fff"/>
  </g>
</svg>
