<svg xmlns="http://www.w3.org/2000/svg" width="151.418" height="151.419" viewBox="0 0 151.418 151.419">
  <g id="Raggruppa_648" data-name="Raggruppa 648" transform="translate(-442.194 -2255)">
    <path id="Tracciato_449" data-name="Tracciato 449" d="M437.643,151.419h0A75.71,75.71,0,1,1,513.352,75.71a75.709,75.709,0,0,1-75.709,75.709" transform="translate(80.26 2255)" fill="none"/>
    <path id="Tracciato_465" data-name="Tracciato 465" d="M415.444,70.031a9.264,9.264,0,0,1-9.255-9.254V57.359a2.65,2.65,0,0,1,5.3,0v3.418a3.954,3.954,0,0,0,7.907,0V57.359a2.65,2.65,0,0,1,5.3,0v3.418a9.264,9.264,0,0,1-9.254,9.254" transform="translate(80.26 2255)" fill="#fff"/>
    <path id="Tracciato_466" data-name="Tracciato 466" d="M459.842,70.031a9.265,9.265,0,0,1-9.255-9.254V57.359a2.65,2.65,0,0,1,5.3,0v3.418a3.954,3.954,0,0,0,7.908,0V57.359a2.65,2.65,0,0,1,5.3,0v3.418a9.265,9.265,0,0,1-9.255,9.254" transform="translate(80.26 2255)" fill="#fff"/>
  </g>
</svg>
