<svg xmlns="http://www.w3.org/2000/svg" width="151.418" height="151.419" viewBox="0 0 151.418 151.419">
  <g id="Raggruppa_658" data-name="Raggruppa 658" transform="translate(-80.26 -2444.114)">
    <path id="Tracciato_453" data-name="Tracciato 453" d="M75.709,340.533h0a75.709,75.709,0,1,1,75.709-75.709,75.709,75.709,0,0,1-75.709,75.709" transform="translate(80.26 2255)" fill="none"/>
    <path id="Tracciato_461" data-name="Tracciato 461" d="M49.78,247.939v-6.36a5.167,5.167,0,0,1,10.334,0v6.36a5.167,5.167,0,1,1-10.334,0" transform="translate(80.26 2255)" fill="#fff"/>
    <path id="Tracciato_462" data-name="Tracciato 462" d="M91.3,247.939v-6.36a5.167,5.167,0,0,1,10.334,0v6.36a5.167,5.167,0,1,1-10.334,0" transform="translate(80.26 2255)" fill="#fff"/>
    <path id="Tracciato_475" data-name="Tracciato 475" d="M68.985,233.173H38.035a2.651,2.651,0,1,1,0-5.3h30.95a2.651,2.651,0,0,1,0,5.3" transform="translate(80.26 2255)" fill="#fff"/>
    <path id="Tracciato_476" data-name="Tracciato 476" d="M113.384,233.173H82.434a2.651,2.651,0,1,1,0-5.3h30.95a2.651,2.651,0,0,1,0,5.3" transform="translate(80.26 2255)" fill="#fff"/>
  </g>
</svg>
