<svg xmlns="http://www.w3.org/2000/svg" width="151.418" height="151.419" viewBox="0 0 151.418 151.419">
  <g id="Raggruppa_652" data-name="Raggruppa 652" transform="translate(-1164.582 -2255)">
    <path id="Tracciato_445" data-name="Tracciato 445" d="M1160.031,151.419h0A75.71,75.71,0,1,1,1235.74,75.71a75.709,75.709,0,0,1-75.709,75.709" transform="translate(80.26 2255)" fill="none"/>
    <path id="Tracciato_446" data-name="Tracciato 446" d="M1192.8,56.04l1.48-4.738a7.693,7.693,0,0,0-7.343-9.986H1177.2a7.63,7.63,0,0,0-4.323,1.325L1123.432,9.382q-2.565,1.416-5.006,3.022l51.366,34.55a7.613,7.613,0,0,0,.066,4.348l4.031,12.907a7.692,7.692,0,0,0,7.343,5.4h1.672a7.691,7.691,0,0,0,7.343-5.4l.9-2.889,41.76,28.089a2.643,2.643,0,0,0,1.432.448q.5-2.634.811-5.328Z" transform="translate(80.26 2255)" fill="#fff"/>
    <path id="Tracciato_486" data-name="Tracciato 486" d="M1143.587,54.951H1153.9a2.65,2.65,0,0,0,0-5.3h-30.95a2.65,2.65,0,1,0,0,5.3h10.307v3.382a5.167,5.167,0,1,0,10.334,0Z" transform="translate(80.26 2255)" fill="#fff"/>
  </g>
</svg>
