<svg xmlns="http://www.w3.org/2000/svg" width="151.418" height="151.419" viewBox="0 0 151.418 151.419">
  <g id="Raggruppa_647" data-name="Raggruppa 647" transform="translate(-260.599 -2255)">
    <path id="Tracciato_448" data-name="Tracciato 448" d="M256.048,151.419h0A75.71,75.71,0,1,1,331.757,75.71a75.709,75.709,0,0,1-75.709,75.709" transform="translate(80.26 2255)" fill="none"/>
    <path id="Tracciato_484" data-name="Tracciato 484" d="M293.722,50.064h-30.95a2.651,2.651,0,0,0,0,5.3H273.08v3.381a5.167,5.167,0,0,0,10.334,0V55.366h10.308a2.651,2.651,0,0,0,0-5.3" transform="translate(80.26 2255)" fill="#fff"/>
    <path id="Tracciato_485" data-name="Tracciato 485" d="M239.015,55.365h10.309a2.651,2.651,0,0,0,0-5.3h-30.95a2.651,2.651,0,1,0,0,5.3h10.307v3.382a5.167,5.167,0,1,0,10.334,0Z" transform="translate(80.26 2255)" fill="#fff"/>
  </g>
</svg>
