<svg xmlns="http://www.w3.org/2000/svg" width="151.418" height="151.419" viewBox="0 0 151.418 151.419">
  <g id="Raggruppa_646" data-name="Raggruppa 646" transform="translate(-80.26 -2255)">
    <path id="Tracciato_447" data-name="Tracciato 447" d="M75.709,151.419h0A75.71,75.71,0,1,1,151.418,75.71a75.709,75.709,0,0,1-75.709,75.709" transform="translate(80.26 2255)" fill="none"/>
    <path id="Tracciato_459" data-name="Tracciato 459" d="M49.78,58.747V52.388a5.167,5.167,0,1,1,10.334,0v6.359a5.167,5.167,0,1,1-10.334,0" transform="translate(80.26 2255)" fill="#fff"/>
    <path id="Tracciato_460" data-name="Tracciato 460" d="M91.3,58.747V52.388a5.167,5.167,0,1,1,10.334,0v6.359a5.167,5.167,0,1,1-10.334,0" transform="translate(80.26 2255)" fill="#fff"/>
  </g>
</svg>
