<svg xmlns="http://www.w3.org/2000/svg" width="151.418" height="151.419" viewBox="0 0 151.418 151.419">
  <g id="Raggruppa_651" data-name="Raggruppa 651" transform="translate(-983.209 -2255)">
    <path id="Tracciato_452" data-name="Tracciato 452" d="M978.658,151.419h0a75.71,75.71,0,1,1,75.709-75.709,75.709,75.709,0,0,1-75.709,75.709" transform="translate(80.26 2255)" fill="none"/>
    <path id="Tracciato_473" data-name="Tracciato 473" d="M964.022,49.547a2.651,2.651,0,0,0-3.748.061l-3.815,3.94-3.815-3.94a2.651,2.651,0,1,0-3.809,3.687l3.935,4.064-3.935,4.063a2.651,2.651,0,0,0,3.809,3.687l3.815-3.94,3.815,3.94a2.65,2.65,0,1,0,3.808-3.687l-3.934-4.063,3.934-4.064a2.65,2.65,0,0,0-.06-3.748" transform="translate(80.26 2255)" fill="#fff"/>
    <path id="Tracciato_474" data-name="Tracciato 474" d="M1004.545,57.359l3.934-4.064a2.65,2.65,0,1,0-3.808-3.687l-3.815,3.941-3.815-3.941a2.65,2.65,0,1,0-3.808,3.687l3.934,4.064-3.934,4.064a2.65,2.65,0,1,0,3.808,3.687l3.815-3.941,3.815,3.941a2.65,2.65,0,1,0,3.808-3.687Z" transform="translate(80.26 2255)" fill="#fff"/>
  </g>
</svg>
