<svg xmlns="http://www.w3.org/2000/svg" xmlns:xlink="http://www.w3.org/1999/xlink" width="246.374" height="16.026" viewBox="0 0 246.374 16.026">
  <defs>
    <clipPath id="clip-path">
      <rect id="Rettangolo_435" data-name="Rettangolo 435" width="246.374" height="16.025" transform="translate(0 0)"/>
    </clipPath>
  </defs>
  <g id="Raggruppa_689" data-name="Raggruppa 689" transform="translate(0 0.001)">
    <path id="Tracciato_500" data-name="Tracciato 500" d="M7.157,12.882v1.431H2.382v1.432H14.314V12.882Z"/>
    <rect id="Rettangolo_429" data-name="Rettangolo 429" width="2.386" height="1.431" transform="translate(0 12.882)"/>
    <rect id="Rettangolo_430" data-name="Rettangolo 430" width="2.378" height="1.433" transform="translate(0.004 10.017)"/>
    <path id="Tracciato_501" data-name="Tracciato 501" d="M7.156,8.6v4.288H2.381V11.45H4.768V10.028H2.381V8.6Z"/>
    <rect id="Rettangolo_431" data-name="Rettangolo 431" width="2.386" height="1.432" transform="translate(0 7.157)"/>
    <rect id="Rettangolo_432" data-name="Rettangolo 432" width="2.386" height="1.431" transform="translate(0 4.294)"/>
    <path id="Tracciato_502" data-name="Tracciato 502" d="M14.309,1.433V4.3H7.156V7.133H2.381v-1.4H4.769V4.3H2.381V2.866H7.156V1.433Z"/>
    <rect id="Rettangolo_433" data-name="Rettangolo 433" width="2.386" height="1.431" transform="translate(0 1.431)"/>
    <rect id="Rettangolo_434" data-name="Rettangolo 434" width="4.775" height="1.433" transform="translate(2.381 -0.001)"/>
    <path id="Tracciato_503" data-name="Tracciato 503" d="M24.313,1.443v1.6h4.761v12.7h1.8V3.042h4.761v-1.6Z"/>
    <path id="Tracciato_504" data-name="Tracciato 504" d="M46.856,1.443v6.08H39.214V1.443h-1.8v14.3h1.8V9.125h7.642v6.621h1.8V1.443Z"/>
    <path id="Tracciato_505" data-name="Tracciato 505" d="M51.333,1.443v14.3H61.676v-1.6H53.134v-5h7.341v-1.6H53.134v-4.5h8.3v-1.6Z"/>
    <g id="Raggruppa_688" data-name="Raggruppa 688">
      <g id="Raggruppa_687" data-name="Raggruppa 687" clip-path="url(#clip-path)">
        <path id="Tracciato_506" data-name="Tracciato 506" d="M73.855,2.763c-3.4,0-4.821,2.94-4.821,5.821,0,2.9,1.421,5.841,4.821,5.841a3.955,3.955,0,0,0,4.281-3.841h1.8a5.785,5.785,0,0,1-6.082,5.442c-3.92,0-6.621-3.121-6.621-7.442,0-4.3,2.7-7.422,6.621-7.422a5.784,5.784,0,0,1,6.082,5h-1.8a4.047,4.047,0,0,0-4.281-3.4"/>
        <path id="Tracciato_507" data-name="Tracciato 507" d="M83.634,12.164l-1.26,3.581H80.513l5.281-14.3h2l5.262,14.3H91.195l-1.26-3.581Zm5.721-1.6L86.814,3.1h-.04l-2.54,7.462Z"/>
        <path id="Tracciato_508" data-name="Tracciato 508" d="M96.654,3.042H91.893v-1.6h11.323v1.6H98.454v12.7h-1.8Z"/>
        <path id="Tracciato_509" data-name="Tracciato 509" d="M105.174,12.164l-1.26,3.581h-1.861l5.281-14.3h2l5.262,14.3h-1.861l-1.26-3.581Zm5.721-1.6L108.354,3.1h-.04l-2.54,7.462Z"/>
        <path id="Tracciato_510" data-name="Tracciato 510" d="M117.933,1.442v12.7h7.5v1.6h-9.3V1.442Z"/>
        <path id="Tracciato_511" data-name="Tracciato 511" d="M125.913,1.442l4.141,7h.04l4.161-7h1.94l-5.221,8.441v5.862h-1.8V9.883l-5.2-8.441Z"/>
        <path id="Tracciato_512" data-name="Tracciato 512" d="M147.6,12c0,2.081-1.541,4.021-5.161,4.021-3.381,0-6-1.8-6.2-5.081h1.8c.2,1.96,1.4,3.481,4.4,3.481,2.48,0,3.36-1.141,3.36-2.421,0-1.96-1.06-2.32-4.261-3.061-2.14-.5-4.7-1.24-4.7-4.02,0-2.261,1.741-3.761,4.9-3.761,3.04,0,5.161,1.561,5.4,4.521h-1.8c-.26-1.92-1.34-2.92-3.6-2.92-2.021,0-3.1.78-3.1,1.96,0,1.9,1.54,2.16,3.641,2.68,3.22.8,5.321,1.34,5.321,4.6"/>
        <path id="Tracciato_513" data-name="Tracciato 513" d="M152.814,3.042h-4.761v-1.6h11.323v1.6h-4.762v12.7h-1.8Z"/>
        <path id="Tracciato_514" data-name="Tracciato 514" d="M175.615,12c0,2.081-1.541,4.021-5.161,4.021-3.381,0-6-1.8-6.2-5.081h1.8c.2,1.96,1.4,3.481,4.4,3.481,2.48,0,3.36-1.141,3.36-2.421,0-1.96-1.06-2.32-4.261-3.061-2.141-.5-4.7-1.24-4.7-4.02,0-2.261,1.741-3.761,4.9-3.761,3.04,0,5.161,1.561,5.4,4.521h-1.8c-.26-1.92-1.341-2.92-3.6-2.92-2.021,0-3.1.78-3.1,1.96,0,1.9,1.54,2.16,3.641,2.68,3.22.8,5.321,1.34,5.321,4.6"/>
        <path id="Tracciato_515" data-name="Tracciato 515" d="M183.753,2.763c-3.4,0-4.82,2.94-4.82,5.821,0,2.9,1.42,5.841,4.82,5.841a3.955,3.955,0,0,0,4.281-3.841h1.8a5.784,5.784,0,0,1-6.082,5.442c-3.92,0-6.621-3.121-6.621-7.442,0-4.3,2.7-7.422,6.621-7.422a5.784,5.784,0,0,1,6.082,5h-1.8a4.047,4.047,0,0,0-4.281-3.4"/>
        <path id="Tracciato_516" data-name="Tracciato 516" d="M193.652,1.442V7.523h7.642V1.442h1.8v14.3h-1.8V9.124h-7.642v6.621h-1.8V1.442Z"/>
        <path id="Tracciato_517" data-name="Tracciato 517" d="M205.332,8.584c0-4.3,2.8-7.422,7-7.422s7,3.12,7,7.422-2.8,7.441-7,7.441-7-3.14-7-7.441m12.2,0c0-3.081-1.6-5.821-5.2-5.821s-5.2,2.74-5.2,5.821,1.6,5.841,5.2,5.841,5.2-2.761,5.2-5.841"/>
        <path id="Tracciato_518" data-name="Tracciato 518" d="M220.932,8.584c0-4.3,2.8-7.422,7-7.422s7,3.12,7,7.422-2.8,7.441-7,7.441-7-3.14-7-7.441m12.2,0c0-3.081-1.6-5.821-5.2-5.821s-5.2,2.74-5.2,5.821,1.6,5.841,5.2,5.841,5.2-2.761,5.2-5.841"/>
        <path id="Tracciato_519" data-name="Tracciato 519" d="M238.872,1.442v12.7h7.5v1.6h-9.3V1.442Z"/>
      </g>
    </g>
  </g>
</svg>
