<svg xmlns="http://www.w3.org/2000/svg" width="151.418" height="151.419" viewBox="0 0 151.418 151.419">
  <g id="Raggruppa_637" data-name="Raggruppa 637" transform="translate(-241.839 -1779)">
    <path id="Tracciato_429" data-name="Tracciato 429" d="M256.048,151.419h0A75.71,75.71,0,1,1,331.757,75.71a75.709,75.709,0,0,1-75.709,75.709" transform="translate(61.5 1779)" fill="none"/>
    <path id="Tracciato_430" data-name="Tracciato 430" d="M265.377,88.639a2.65,2.65,0,0,1-2.65-2.65,5.377,5.377,0,1,0-10.754,0,2.651,2.651,0,0,1-5.3,0,10.678,10.678,0,1,1,21.355,0,2.65,2.65,0,0,1-2.65,2.65" transform="translate(61.5 1779)" fill="#fff"/>
  </g>
</svg>
