<svg xmlns="http://www.w3.org/2000/svg" width="151.418" height="151.419" viewBox="0 0 151.418 151.419">
  <g id="Raggruppa_638" data-name="Raggruppa 638" transform="translate(-422.177 -1779)">
    <path id="Tracciato_433" data-name="Tracciato 433" d="M436.386,151.419h0A75.71,75.71,0,1,1,512.095,75.71a75.709,75.709,0,0,1-75.709,75.709" transform="translate(61.5 1779)" fill="none"/>
    <path id="Tracciato_434" data-name="Tracciato 434" d="M436.386,99.7a9.266,9.266,0,0,1-9.255-9.255V82.314a9.255,9.255,0,1,1,18.51,0v8.129a9.266,9.266,0,0,1-9.255,9.255m0-21.338a3.959,3.959,0,0,0-3.954,3.954v8.129a3.954,3.954,0,1,0,7.908,0V82.314a3.959,3.959,0,0,0-3.954-3.954" transform="translate(61.5 1779)" fill="#fff"/>
  </g>
</svg>
