<svg xmlns="http://www.w3.org/2000/svg" width="151.418" height="151.419" viewBox="0 0 151.418 151.419">
  <g id="Raggruppa_644" data-name="Raggruppa 644" transform="translate(-241.839 -1968.114)">
    <path id="Tracciato_435" data-name="Tracciato 435" d="M256.048,340.533h0a75.709,75.709,0,1,1,75.709-75.709,75.709,75.709,0,0,1-75.709,75.709" transform="translate(61.5 1779)" fill="none"/>
    <path id="Tracciato_436" data-name="Tracciato 436" d="M256.125,271.073a10.69,10.69,0,0,1-10.678-10.678,2.65,2.65,0,0,1,5.3,0,5.377,5.377,0,1,0,10.754,0,2.65,2.65,0,1,1,5.3,0,10.689,10.689,0,0,1-10.677,10.678" transform="translate(61.5 1779)" fill="#fff"/>
  </g>
</svg>
