<?xml version='1.0' encoding='ASCII' standalone='yes'?>
<svg xmlns="http://www.w3.org/2000/svg" xmlns:xlink="http://www.w3.org/1999/xlink" version="1.1" width="151px" height="151px">
  <g>
    <g><metadata xmlns:rdf="http://www.w3.org/1999/02/22-rdf-syntax-ns#" xmlns:cc="http://creativecommons.org/ns#" xmlns:dc="http://purl.org/dc/elements/1.1/" id="metadata12">
    <rdf:RDF>
      <cc:Work rdf:about="">
        <dc:format>image/svg+xml</dc:format>
        <dc:type rdf:resource="http://purl.org/dc/dcmitype/StillImage"/>
        <dc:title/>
      </cc:Work>
    </rdf:RDF>
  </metadata>
  <defs id="defs10"/>
  <sodipodi:namedview xmlns:sodipodi="http://sodipodi.sourceforge.net/DTD/sodipodi-0.dtd" xmlns:inkscape="http://www.inkscape.org/namespaces/inkscape" pagecolor="#ffffff" bordercolor="#666666" borderopacity="1" objecttolerance="10" gridtolerance="10" guidetolerance="10" inkscape:pageopacity="0" inkscape:pageshadow="2" inkscape:window-width="1920" inkscape:window-height="1046" id="namedview8" showgrid="false" units="cm" inkscape:zoom="2.9686035" inkscape:cx="75.709" inkscape:cy="75.709503" inkscape:window-x="0" inkscape:window-y="489" inkscape:window-maximized="1" inkscape:current-layer="svg6"/>
  <circle style="fill:#000000;stroke:#ffffff;stroke-width:0.981076;stroke-linecap:square;paint-order:markers stroke fill" id="path839" cx="75.709038" cy="75.709419" r="75.00946"/>
</g>
    <g><g id="Raggruppa_646" data-name="Raggruppa 646" transform="translate(-80.26 -2255)">
    <path id="Tracciato_447" data-name="Tracciato 447" d="M75.709,151.419h0A75.71,75.71,0,1,1,151.418,75.71a75.709,75.709,0,0,1-75.709,75.709" transform="translate(80.26 2255)" fill="none"/>
    <path id="Tracciato_459" data-name="Tracciato 459" d="M49.78,58.747V52.388a5.167,5.167,0,1,1,10.334,0v6.359a5.167,5.167,0,1,1-10.334,0" transform="translate(80.26 2255)" fill="#fff"/>
    <path id="Tracciato_460" data-name="Tracciato 460" d="M91.3,58.747V52.388a5.167,5.167,0,1,1,10.334,0v6.359a5.167,5.167,0,1,1-10.334,0" transform="translate(80.26 2255)" fill="#fff"/>
  </g>
</g>
    <g><g id="Raggruppa_637" data-name="Raggruppa 637" transform="translate(-241.839 -1779)">
    <path id="Tracciato_429" data-name="Tracciato 429" d="M256.048,151.419h0A75.71,75.71,0,1,1,331.757,75.71a75.709,75.709,0,0,1-75.709,75.709" transform="translate(61.5 1779)" fill="none"/>
    <path id="Tracciato_430" data-name="Tracciato 430" d="M265.377,88.639a2.65,2.65,0,0,1-2.65-2.65,5.377,5.377,0,1,0-10.754,0,2.651,2.651,0,0,1-5.3,0,10.678,10.678,0,1,1,21.355,0,2.65,2.65,0,0,1-2.65,2.65" transform="translate(61.5 1779)" fill="#fff"/>
  </g>
</g>
  </g>
</svg>
