<?xml version='1.0' encoding='ASCII' standalone='yes'?>
<svg xmlns="http://www.w3.org/2000/svg" xmlns:xlink="http://www.w3.org/1999/xlink" version="1.1" width="151px" height="151px">
  <g>
    <g><metadata xmlns:rdf="http://www.w3.org/1999/02/22-rdf-syntax-ns#" xmlns:cc="http://creativecommons.org/ns#" xmlns:dc="http://purl.org/dc/elements/1.1/" id="metadata12">
    <rdf:RDF>
      <cc:Work rdf:about="">
        <dc:format>image/svg+xml</dc:format>
        <dc:type rdf:resource="http://purl.org/dc/dcmitype/StillImage"/>
        <dc:title/>
      </cc:Work>
    </rdf:RDF>
  </metadata>
  <defs id="defs10"/>
  <sodipodi:namedview xmlns:sodipodi="http://sodipodi.sourceforge.net/DTD/sodipodi-0.dtd" xmlns:inkscape="http://www.inkscape.org/namespaces/inkscape" pagecolor="#ffffff" bordercolor="#666666" borderopacity="1" objecttolerance="10" gridtolerance="10" guidetolerance="10" inkscape:pageopacity="0" inkscape:pageshadow="2" inkscape:window-width="1920" inkscape:window-height="1046" id="namedview8" showgrid="false" units="cm" inkscape:zoom="2.9686035" inkscape:cx="75.709" inkscape:cy="75.709503" inkscape:window-x="0" inkscape:window-y="489" inkscape:window-maximized="1" inkscape:current-layer="svg6"/>
  <circle style="fill:#000000;stroke:#ffffff;stroke-width:0.981076;stroke-linecap:square;paint-order:markers stroke fill" id="path839" cx="75.709038" cy="75.709419" r="75.00946"/>
</g>
    <g><g id="Raggruppa_655" data-name="Raggruppa 655" transform="translate(-621.275 -2444.114)">
    <path id="Tracciato_456" data-name="Tracciato 456" d="M616.724,340.533h0a75.709,75.709,0,1,1,75.709-75.709,75.709,75.709,0,0,1-75.709,75.709" transform="translate(80.26 2255)" fill="none"/>
    <rect id="Rettangolo_427" data-name="Rettangolo 427" width="3.051" height="3.051" transform="translate(668.605 2503.302)" fill="#fff"/>
    <rect id="Rettangolo_428" data-name="Rettangolo 428" width="3.051" height="3.051" transform="translate(713.118 2503.302)" fill="#fff"/>
    <path id="Tracciato_483" data-name="Tracciato 483" d="M620.735,242.008H575.983v6.376h2.948v3.128h3.248v2.827h3.188v3.308h21.894v-3.068h3.309v-3.127h3.248v-6.316h5.955v6.316h3.248v3.127h3.308v3.068h21.895v-3.308h3.188v-2.827h3.248v-3.128h2.947v-6.376Z" transform="translate(80.26 2255)" fill="#fff"/>
  </g>
</g>
    <g><g id="Raggruppa_642" data-name="Raggruppa 642" transform="translate(-602.515 -1968.114)">
    <path id="Tracciato_439" data-name="Tracciato 439" d="M616.724,340.533h0a75.709,75.709,0,1,1,75.709-75.709,75.709,75.709,0,0,1-75.709,75.709" transform="translate(61.5 1779)" fill="none"/>
    <path id="Tracciato_440" data-name="Tracciato 440" d="M630.453,286.141H602.995a2.779,2.779,0,0,1-2.779-2.778v-2.032a16.508,16.508,0,1,1,33.015,0v2.032a2.778,2.778,0,0,1-2.778,2.778" transform="translate(61.5 1779)" fill="#fff"/>
  </g>
</g>
  </g>
</svg>
