<?xml version='1.0' encoding='ASCII' standalone='yes'?>
<svg xmlns="http://www.w3.org/2000/svg" xmlns:xlink="http://www.w3.org/1999/xlink" version="1.1" width="151px" height="151px">
  <g>
    <g><metadata xmlns:rdf="http://www.w3.org/1999/02/22-rdf-syntax-ns#" xmlns:cc="http://creativecommons.org/ns#" xmlns:dc="http://purl.org/dc/elements/1.1/" id="metadata12">
    <rdf:RDF>
      <cc:Work rdf:about="">
        <dc:format>image/svg+xml</dc:format>
        <dc:type rdf:resource="http://purl.org/dc/dcmitype/StillImage"/>
        <dc:title/>
      </cc:Work>
    </rdf:RDF>
  </metadata>
  <defs id="defs10"/>
  <sodipodi:namedview xmlns:sodipodi="http://sodipodi.sourceforge.net/DTD/sodipodi-0.dtd" xmlns:inkscape="http://www.inkscape.org/namespaces/inkscape" pagecolor="#ffffff" bordercolor="#666666" borderopacity="1" objecttolerance="10" gridtolerance="10" guidetolerance="10" inkscape:pageopacity="0" inkscape:pageshadow="2" inkscape:window-width="1920" inkscape:window-height="1046" id="namedview8" showgrid="false" units="cm" inkscape:zoom="2.9686035" inkscape:cx="75.709" inkscape:cy="75.709503" inkscape:window-x="0" inkscape:window-y="489" inkscape:window-maximized="1" inkscape:current-layer="svg6"/>
  <circle style="fill:#000000;stroke:#ffffff;stroke-width:0.981076;stroke-linecap:square;paint-order:markers stroke fill" id="path839" cx="75.709038" cy="75.709419" r="75.00946"/>
</g>
    <g><g id="Raggruppa_647" data-name="Raggruppa 647" transform="translate(-260.599 -2255)">
    <path id="Tracciato_448" data-name="Tracciato 448" d="M256.048,151.419h0A75.71,75.71,0,1,1,331.757,75.71a75.709,75.709,0,0,1-75.709,75.709" transform="translate(80.26 2255)" fill="none"/>
    <path id="Tracciato_484" data-name="Tracciato 484" d="M293.722,50.064h-30.95a2.651,2.651,0,0,0,0,5.3H273.08v3.381a5.167,5.167,0,0,0,10.334,0V55.366h10.308a2.651,2.651,0,0,0,0-5.3" transform="translate(80.26 2255)" fill="#fff"/>
    <path id="Tracciato_485" data-name="Tracciato 485" d="M239.015,55.365h10.309a2.651,2.651,0,0,0,0-5.3h-30.95a2.651,2.651,0,1,0,0,5.3h10.307v3.382a5.167,5.167,0,1,0,10.334,0Z" transform="translate(80.26 2255)" fill="#fff"/>
  </g>
</g>
    <g><g id="Raggruppa_639" data-name="Raggruppa 639" transform="translate(-601.806 -1779)">
    <path id="Tracciato_441" data-name="Tracciato 441" d="M616.015,151.419h0A75.71,75.71,0,1,1,691.724,75.71a75.709,75.709,0,0,1-75.709,75.709" transform="translate(61.5 1779)" fill="none"/>
    <path id="Tracciato_442" data-name="Tracciato 442" d="M630.78,99.234H601.249a6.267,6.267,0,0,1-6.267-6.267V81.445a6.267,6.267,0,0,1,6.267-6.267H630.78a6.267,6.267,0,0,1,6.267,6.267V92.967a6.267,6.267,0,0,1-6.267,6.267" transform="translate(61.5 1779)" fill="#fff"/>
  </g>
</g>
  </g>
</svg>
