<?xml version='1.0' encoding='ASCII' standalone='yes'?>
<svg xmlns="http://www.w3.org/2000/svg" xmlns:xlink="http://www.w3.org/1999/xlink" version="1.1" width="151px" height="151px">
  <g>
    <g><metadata xmlns:rdf="http://www.w3.org/1999/02/22-rdf-syntax-ns#" xmlns:cc="http://creativecommons.org/ns#" xmlns:dc="http://purl.org/dc/elements/1.1/" id="metadata12">
    <rdf:RDF>
      <cc:Work rdf:about="">
        <dc:format>image/svg+xml</dc:format>
        <dc:type rdf:resource="http://purl.org/dc/dcmitype/StillImage"/>
        <dc:title/>
      </cc:Work>
    </rdf:RDF>
  </metadata>
  <defs id="defs10"/>
  <sodipodi:namedview xmlns:sodipodi="http://sodipodi.sourceforge.net/DTD/sodipodi-0.dtd" xmlns:inkscape="http://www.inkscape.org/namespaces/inkscape" pagecolor="#ffffff" bordercolor="#666666" borderopacity="1" objecttolerance="10" gridtolerance="10" guidetolerance="10" inkscape:pageopacity="0" inkscape:pageshadow="2" inkscape:window-width="1920" inkscape:window-height="1046" id="namedview8" showgrid="false" units="cm" inkscape:zoom="2.9686035" inkscape:cx="75.709" inkscape:cy="75.709503" inkscape:window-x="0" inkscape:window-y="489" inkscape:window-maximized="1" inkscape:current-layer="svg6"/>
  <circle style="fill:#000000;stroke:#ffffff;stroke-width:0.981076;stroke-linecap:square;paint-order:markers stroke fill" id="path839" cx="75.709038" cy="75.709419" r="75.00946"/>
</g>
    <g><g id="Raggruppa_648" data-name="Raggruppa 648" transform="translate(-442.194 -2255)">
    <path id="Tracciato_449" data-name="Tracciato 449" d="M437.643,151.419h0A75.71,75.71,0,1,1,513.352,75.71a75.709,75.709,0,0,1-75.709,75.709" transform="translate(80.26 2255)" fill="none"/>
    <path id="Tracciato_465" data-name="Tracciato 465" d="M415.444,70.031a9.264,9.264,0,0,1-9.255-9.254V57.359a2.65,2.65,0,0,1,5.3,0v3.418a3.954,3.954,0,0,0,7.907,0V57.359a2.65,2.65,0,0,1,5.3,0v3.418a9.264,9.264,0,0,1-9.254,9.254" transform="translate(80.26 2255)" fill="#fff"/>
    <path id="Tracciato_466" data-name="Tracciato 466" d="M459.842,70.031a9.265,9.265,0,0,1-9.255-9.254V57.359a2.65,2.65,0,0,1,5.3,0v3.418a3.954,3.954,0,0,0,7.908,0V57.359a2.65,2.65,0,0,1,5.3,0v3.418a9.265,9.265,0,0,1-9.255,9.254" transform="translate(80.26 2255)" fill="#fff"/>
  </g>
</g>
    <g><g id="Raggruppa_645" data-name="Raggruppa 645" transform="translate(-61.5 -1968.114)">
    <path id="Tracciato_425" data-name="Tracciato 425" d="M75.709,340.533h0a75.709,75.709,0,1,1,75.709-75.709,75.709,75.709,0,0,1-75.709,75.709" transform="translate(61.5 1779)" fill="none"/>
    <path id="Tracciato_426" data-name="Tracciato 426" d="M91.184,273.817H60.234a2.65,2.65,0,1,1,0-5.3h30.95a2.65,2.65,0,0,1,0,5.3" transform="translate(61.5 1779)" fill="#fff"/>
  </g>
</g>
  </g>
</svg>
