<?xml version='1.0' encoding='ASCII' standalone='yes'?>
<svg xmlns="http://www.w3.org/2000/svg" xmlns:xlink="http://www.w3.org/1999/xlink" version="1.1" width="151px" height="151px">
  <g>
    <g><metadata xmlns:rdf="http://www.w3.org/1999/02/22-rdf-syntax-ns#" xmlns:cc="http://creativecommons.org/ns#" xmlns:dc="http://purl.org/dc/elements/1.1/" id="metadata12">
    <rdf:RDF>
      <cc:Work rdf:about="">
        <dc:format>image/svg+xml</dc:format>
        <dc:type rdf:resource="http://purl.org/dc/dcmitype/StillImage"/>
        <dc:title/>
      </cc:Work>
    </rdf:RDF>
  </metadata>
  <defs id="defs10"/>
  <sodipodi:namedview xmlns:sodipodi="http://sodipodi.sourceforge.net/DTD/sodipodi-0.dtd" xmlns:inkscape="http://www.inkscape.org/namespaces/inkscape" pagecolor="#ffffff" bordercolor="#666666" borderopacity="1" objecttolerance="10" gridtolerance="10" guidetolerance="10" inkscape:pageopacity="0" inkscape:pageshadow="2" inkscape:window-width="1920" inkscape:window-height="1046" id="namedview8" showgrid="false" units="cm" inkscape:zoom="2.9686035" inkscape:cx="75.709" inkscape:cy="75.709503" inkscape:window-x="0" inkscape:window-y="489" inkscape:window-maximized="1" inkscape:current-layer="svg6"/>
  <circle style="fill:#000000;stroke:#ffffff;stroke-width:0.981076;stroke-linecap:square;paint-order:markers stroke fill" id="path839" cx="75.709038" cy="75.709419" r="75.00946"/>
</g>
    <g><g id="Raggruppa_651" data-name="Raggruppa 651" transform="translate(-983.209 -2255)">
    <path id="Tracciato_452" data-name="Tracciato 452" d="M978.658,151.419h0a75.71,75.71,0,1,1,75.709-75.709,75.709,75.709,0,0,1-75.709,75.709" transform="translate(80.26 2255)" fill="none"/>
    <path id="Tracciato_473" data-name="Tracciato 473" d="M964.022,49.547a2.651,2.651,0,0,0-3.748.061l-3.815,3.94-3.815-3.94a2.651,2.651,0,1,0-3.809,3.687l3.935,4.064-3.935,4.063a2.651,2.651,0,0,0,3.809,3.687l3.815-3.94,3.815,3.94a2.65,2.65,0,1,0,3.808-3.687l-3.934-4.063,3.934-4.064a2.65,2.65,0,0,0-.06-3.748" transform="translate(80.26 2255)" fill="#fff"/>
    <path id="Tracciato_474" data-name="Tracciato 474" d="M1004.545,57.359l3.934-4.064a2.65,2.65,0,1,0-3.808-3.687l-3.815,3.941-3.815-3.941a2.65,2.65,0,1,0-3.808,3.687l3.934,4.064-3.934,4.064a2.65,2.65,0,1,0,3.808,3.687l3.815-3.941,3.815,3.941a2.65,2.65,0,1,0,3.808-3.687Z" transform="translate(80.26 2255)" fill="#fff"/>
  </g>
</g>
    <g><g id="Raggruppa_641" data-name="Raggruppa 641" transform="translate(-784.436 -1968.114)">
    <path id="Tracciato_443" data-name="Tracciato 443" d="M798.645,340.533h0a75.709,75.709,0,1,1,75.709-75.709,75.709,75.709,0,0,1-75.709,75.709" transform="translate(61.5 1779)" fill="none"/>
    <path id="Tracciato_444" data-name="Tracciato 444" d="M811.765,323.248H785.524a4.662,4.662,0,0,1-4.8-4.509V280.547c0-8.684,7.495-15.723,16.74-15.723h2.363c9.245,0,16.74,7.039,16.74,15.723v38.192a4.662,4.662,0,0,1-4.8,4.509" transform="translate(61.5 1779)" fill="#fff"/>
  </g>
</g>
  </g>
</svg>
