<?xml version='1.0' encoding='ASCII' standalone='yes'?>
<svg xmlns="http://www.w3.org/2000/svg" xmlns:xlink="http://www.w3.org/1999/xlink" version="1.1" width="151px" height="151px">
  <g>
    <g><metadata xmlns:rdf="http://www.w3.org/1999/02/22-rdf-syntax-ns#" xmlns:cc="http://creativecommons.org/ns#" xmlns:dc="http://purl.org/dc/elements/1.1/" id="metadata12">
    <rdf:RDF>
      <cc:Work rdf:about="">
        <dc:format>image/svg+xml</dc:format>
        <dc:type rdf:resource="http://purl.org/dc/dcmitype/StillImage"/>
        <dc:title/>
      </cc:Work>
    </rdf:RDF>
  </metadata>
  <defs id="defs10"/>
  <sodipodi:namedview xmlns:sodipodi="http://sodipodi.sourceforge.net/DTD/sodipodi-0.dtd" xmlns:inkscape="http://www.inkscape.org/namespaces/inkscape" pagecolor="#ffffff" bordercolor="#666666" borderopacity="1" objecttolerance="10" gridtolerance="10" guidetolerance="10" inkscape:pageopacity="0" inkscape:pageshadow="2" inkscape:window-width="1920" inkscape:window-height="1046" id="namedview8" showgrid="false" units="cm" inkscape:zoom="2.9686035" inkscape:cx="75.709" inkscape:cy="75.709503" inkscape:window-x="0" inkscape:window-y="489" inkscape:window-maximized="1" inkscape:current-layer="svg6"/>
  <circle style="fill:#000000;stroke:#ffffff;stroke-width:0.981076;stroke-linecap:square;paint-order:markers stroke fill" id="path839" cx="75.709038" cy="75.709419" r="75.00946"/>
</g>
    <g><g id="Raggruppa_652" data-name="Raggruppa 652" transform="translate(-1164.582 -2255)">
    <path id="Tracciato_445" data-name="Tracciato 445" d="M1160.031,151.419h0A75.71,75.71,0,1,1,1235.74,75.71a75.709,75.709,0,0,1-75.709,75.709" transform="translate(80.26 2255)" fill="none"/>
    <path id="Tracciato_446" data-name="Tracciato 446" d="M1192.8,56.04l1.48-4.738a7.693,7.693,0,0,0-7.343-9.986H1177.2a7.63,7.63,0,0,0-4.323,1.325L1123.432,9.382q-2.565,1.416-5.006,3.022l51.366,34.55a7.613,7.613,0,0,0,.066,4.348l4.031,12.907a7.692,7.692,0,0,0,7.343,5.4h1.672a7.691,7.691,0,0,0,7.343-5.4l.9-2.889,41.76,28.089a2.643,2.643,0,0,0,1.432.448q.5-2.634.811-5.328Z" transform="translate(80.26 2255)" fill="#fff"/>
    <path id="Tracciato_486" data-name="Tracciato 486" d="M1143.587,54.951H1153.9a2.65,2.65,0,0,0,0-5.3h-30.95a2.65,2.65,0,1,0,0,5.3h10.307v3.382a5.167,5.167,0,1,0,10.334,0Z" transform="translate(80.26 2255)" fill="#fff"/>
  </g>
</g>
    <g><g id="Raggruppa_637" data-name="Raggruppa 637" transform="translate(-241.839 -1779)">
    <path id="Tracciato_429" data-name="Tracciato 429" d="M256.048,151.419h0A75.71,75.71,0,1,1,331.757,75.71a75.709,75.709,0,0,1-75.709,75.709" transform="translate(61.5 1779)" fill="none"/>
    <path id="Tracciato_430" data-name="Tracciato 430" d="M265.377,88.639a2.65,2.65,0,0,1-2.65-2.65,5.377,5.377,0,1,0-10.754,0,2.651,2.651,0,0,1-5.3,0,10.678,10.678,0,1,1,21.355,0,2.65,2.65,0,0,1-2.65,2.65" transform="translate(61.5 1779)" fill="#fff"/>
  </g>
</g>
  </g>
</svg>
